<svg xmlns="http://www.w3.org/2000/svg" viewBox="0 0 64 64">
  <defs>
    <linearGradient id="grad" x1="0" x2="1" y1="0" y2="1">
      <stop offset="0%" stop-color="#ffd1dc" />
      <stop offset="100%" stop-color="#c49cff" />
    </linearGradient>
  </defs>
  <circle cx="32" cy="32" r="30" fill="#1a102a" />
  <path d="M32 14c6 0 11 4 11 9 0 6-5 10-11 10s-11-4-11-10c0-5 5-9 11-9z" fill="url(#grad)" />
  <path d="M20 32h24v9c0 5-5 9-12 9s-12-4-12-9v-9z" fill="#c6e2ff" />
  <circle cx="25" cy="36" r="3" fill="#1a102a" />
  <circle cx="39" cy="36" r="3" fill="#1a102a" />
  <path d="M24 44c2 2 5 3 8 3s6-1 8-3" stroke="#1a102a" stroke-width="2" stroke-linecap="round" fill="none" />
</svg>
